<svg xmlns="http://www.w3.org/2000/svg" viewBox='0 0 92 76' ><linearGradient id="prefix__a" gradientUnits="userSpaceOnUse" x1="28" y1="-97" x2="92" y2="-97" gradientTransform="matrix(1 0 0 -1 0 -58)"><stop offset="0" stop-color="#ffe552"/><stop offset="1" stop-color="#ff9617"/></linearGradient><path d="M92 72c0 2.2-1.8 4-4 4H32c-2.2 0-4-1.8-4-4V6c0-2.2 1.8-4 4-4h56c2.2 0 4 1.8 4 4v66z" fill="url(#prefix__a)"/><linearGradient id="prefix__b" gradientUnits="userSpaceOnUse" x1="0" y1="-98" x2="28" y2="-98" gradientTransform="matrix(1 0 0 -1 0 -58)"><stop offset="0" stop-color="#ffe552"/><stop offset="1" stop-color="#ffae39"/></linearGradient><path d="M28 64h-4C10.8 64 0 53.2 0 40s10.8-24 24-24h4v8h-4c-8.8 0-16 7.2-16 16s7.2 16 16 16h4v8z" fill="url(#prefix__b)"/><linearGradient id="prefix__c" gradientUnits="userSpaceOnUse" x1="52" y1="-56.227" x2="52" y2="-76.553" gradientTransform="matrix(1 0 0 -1 0 -58)"><stop offset="0" stop-color="#be7a5c"/><stop offset="1" stop-color="#996d5c"/></linearGradient><path d="M66 2v11.7c0 2.6-1.9 5-4.5 5.3-3 .3-5.5-2-5.5-4.9 0-2-1.5-3.8-3.5-4-2.4-.3-4.5 1.6-4.5 4v5c0 2.8-2.2 5-5 5-1.4 0-2.6-.6-3.5-1.5S38 20.4 38 19V2c0-1.1.9-2 2-2h24c1.1 0 2 .9 2 2z" fill="url(#prefix__c)"/><linearGradient id="prefix__d" gradientUnits="userSpaceOnUse" x1="88" y1="-136.055" x2="88" y2="-59.482" gradientTransform="matrix(1 0 0 -1 0 -58)"><stop offset="0" stop-color="#302926" stop-opacity="0"/><stop offset="1" stop-opacity=".15"/></linearGradient><path d="M92 72c0 2.2-1.8 4-4 4s-4-1.8-4-4V2h4c2.2 0 4 1.8 4 4v66z" fill="url(#prefix__d)"/><path d="M48 19v2c0 2.8-2.2 5-5 5-1.4 0-2.6-.6-3.5-1.5S38 22.4 38 21v-2c0 1.4.6 2.6 1.5 3.5.9.9 2.2 1.5 3.5 1.5 2.8 0 5-2.2 5-5zM66 13.7v2c0 2.6-1.9 5-4.5 5.3-3 .3-5.5-2-5.5-4.9 0-2-1.5-3.8-3.5-4-2.4-.3-4.5 1.6-4.5 4v-2c0-2.4 2.1-4.3 4.5-4 2 .3 3.4 2 3.5 4 0 2.9 2.5 5.2 5.5 4.9 2.6-.3 4.5-2.7 4.5-5.3z" opacity=".1" fill="#3d3630"/></svg>