<svg xmlns="http://www.w3.org/2000/svg" xmlns:xlink="http://www.w3.org/1999/xlink" viewBox="0 0 130.33 121.5"><defs><style>.cls-1{isolation:isolate;}.cls-2{fill:url(#linear-gradient);}.cls-3{fill:url(#linear-gradient-2);}.cls-4{fill:url(#linear-gradient-3);}.cls-5,.cls-6{mix-blend-mode:multiply;}.cls-5{fill:url(#linear-gradient-4);}.cls-6{fill:url(#linear-gradient-5);}</style><linearGradient id="linear-gradient" x1="116.46" y1="104.14" x2="22.07" y2="9.75" gradientUnits="userSpaceOnUse"><stop offset="0" stop-color="#9300ff"/><stop offset="0.22" stop-color="#6937f9"/><stop offset="0.49" stop-color="#3c71f2"/><stop offset="0.72" stop-color="#1b9bed"/><stop offset="0.89" stop-color="#07b5ea"/><stop offset="1" stop-color="#00bfe9"/></linearGradient><linearGradient id="linear-gradient-2" x1="108.37" y1="112.23" x2="13.98" y2="17.84" xlink:href="#linear-gradient"/><linearGradient id="linear-gradient-3" x1="98.37" y1="122.23" x2="3.99" y2="27.84" xlink:href="#linear-gradient"/><linearGradient id="linear-gradient-4" x1="54.48" y1="106.23" x2="82.91" y2="65.66" gradientUnits="userSpaceOnUse"><stop offset="0" stop-color="#620b87"/><stop offset="0.11" stop-color="#6f1f91"/><stop offset="0.35" stop-color="#9154ab"/><stop offset="0.68" stop-color="#c7a7d4"/><stop offset="1" stop-color="#fff"/></linearGradient><linearGradient id="linear-gradient-5" x1="18.93" y1="44.31" x2="59.13" y2="16.72" gradientUnits="userSpaceOnUse"><stop offset="0" stop-color="#620b87"/><stop offset="0.15" stop-color="#813b9f"/><stop offset="0.38" stop-color="#ad80c1"/><stop offset="0.59" stop-color="#d0b7db"/><stop offset="0.77" stop-color="#eadeef"/><stop offset="0.91" stop-color="#f9f6fb"/><stop offset="1" stop-color="#fff"/></linearGradient></defs><title>Asset 1</title><g class="cls-1"><g id="Layer_2" data-name="Layer 2"><g id="OBJECTS"><path class="cls-2" d="M60.4,40.05h0a6.21,6.21,0,0,1,6.21,6.21v6.21a0,0,0,0,1,0,0H54.19a0,0,0,0,1,0,0V46.26A6.21,6.21,0,0,1,60.4,40.05Z"/><path class="cls-3" d="M123.65,91.42H60.75A30.68,30.68,0,0,1,30.08,61.13a28.35,28.35,0,0,1,.26-4.34A30.89,30.89,0,0,1,60.4,30.08a30.35,30.35,0,0,1,9.15,1.28A15.06,15.06,0,0,0,88.78,16.91,14.83,14.83,0,0,0,78.21,2.55a60.76,60.76,0,1,0-17.46,119h69.58A70.56,70.56,0,0,0,123.65,91.42Z"/><path class="cls-4" d="M130.33,121.5H60.75a60.79,60.79,0,0,1-58-42.65A70.91,70.91,0,0,1,130.33,121.5Z"/><path class="cls-5" d="M60.75,91.42A30.68,30.68,0,0,1,30.08,61.13a28.35,28.35,0,0,1,.26-4.34,71,71,0,0,1,93.31,34.63Z"/><path class="cls-6" d="M69.55,31.36A15.06,15.06,0,0,0,88.78,16.91,14.83,14.83,0,0,0,78.21,2.55a60.57,60.57,0,0,0-57.89,13C47.19,14.69,69.55,31.36,69.55,31.36Z"/></g></g></g></svg>